<?xml version="1.0" encoding="UTF-8" standalone="no"?>
<!-- Created with Inkscape (http://www.inkscape.org/) -->

<svg
   xmlns:dc="http://purl.org/dc/elements/1.1/"
   xmlns:cc="http://creativecommons.org/ns#"
   xmlns:rdf="http://www.w3.org/1999/02/22-rdf-syntax-ns#"
   xmlns:svg="http://www.w3.org/2000/svg"
   xmlns="http://www.w3.org/2000/svg"
   xmlns:sodipodi="http://sodipodi.sourceforge.net/DTD/sodipodi-0.dtd"
   xmlns:inkscape="http://www.inkscape.org/namespaces/inkscape"
   width="297mm"
   height="420mm"
   viewBox="0 0 297 420"
   version="1.1"
   id="svg8"
   inkscape:export-filename="/home/kerzol/soft/papers/tshirt-blue-white-t.png"
   inkscape:export-xdpi="300.022"
   inkscape:export-ydpi="300.022"
   inkscape:version="0.92.2 5c3e80d, 2017-08-06"
   sodipodi:docname="tshirt.svg">
  <defs
     id="defs2">
    <inkscape:path-effect
       effect="spiro"
       id="path-effect5305"
       is_visible="true" />
  </defs>
  <sodipodi:namedview
     id="base"
     pagecolor="#ffffff"
     bordercolor="#666666"
     borderopacity="1.0"
     inkscape:pageopacity="0.0"
     inkscape:pageshadow="2"
     inkscape:zoom="0.49497475"
     inkscape:cx="429.28438"
     inkscape:cy="1322.5521"
     inkscape:document-units="mm"
     inkscape:current-layer="layer1"
     showgrid="false"
     showguides="true"
     inkscape:guide-bbox="true"
     inkscape:window-width="1276"
     inkscape:window-height="776"
     inkscape:window-x="0"
     inkscape:window-y="20"
     inkscape:window-maximized="1" />
  <metadata
     id="metadata5">
    <rdf:RDF>
      <cc:Work
         rdf:about="">
        <dc:format>image/svg+xml</dc:format>
        <dc:type
           rdf:resource="http://purl.org/dc/dcmitype/StillImage" />
        <dc:title></dc:title>
      </cc:Work>
    </rdf:RDF>
  </metadata>
  <g
     inkscape:label="Layer 1"
     inkscape:groupmode="layer"
     id="layer1"
     transform="translate(0,123)">
    <g
       id="g5369"
       transform="translate(4.8108519,-243.21527)">
      <path
         sodipodi:nodetypes="sssccss"
         inkscape:connector-curvature="0"
         id="rect5287"
         d="M 26.274104,131.63377 H 261.23193 c 10.72714,0 19.36308,10.09793 19.36308,22.64109 v 62.5864 H 6.9110193 v -62.5864 c 0,-12.54316 8.6359357,-22.64109 19.3630847,-22.64109 z"
         style="opacity:1;fill:#73a0c5;fill-opacity:1;fill-rule:nonzero;stroke:none;stroke-width:0;stroke-linecap:round;stroke-linejoin:round;stroke-miterlimit:4;stroke-dasharray:none;stroke-dashoffset:0;stroke-opacity:1"
         transform="matrix(1,0,0,0.90971814,3.7797618,14.750502)" />
      <g
         transform="matrix(0.94592347,0,0,0.94592347,27.186611,12.548919)"
         id="g4538">
        <text
           xml:space="preserve"
           style="font-style:normal;font-weight:normal;font-size:10.58333302px;line-height:125%;font-family:Sans;letter-spacing:0px;word-spacing:0px;fill:#000000;fill-opacity:1;stroke:none;stroke-width:0.26458332px;stroke-linecap:butt;stroke-linejoin:miter;stroke-opacity:1"
           x="21.922621"
           y="188.14287"
           id="text4506"><tspan
             sodipodi:role="line"
             id="tspan4504"
             x="21.922621"
             y="188.14287"
             style="font-style:normal;font-variant:normal;font-weight:bold;font-stretch:normal;font-size:50.79999924px;font-family:'DejaVu Serif';-inkscape-font-specification:'DejaVu Serif Bold';fill:#ffffff;stroke-width:0.26458332px">Papers</tspan></text>
        <text
           xml:space="preserve"
           style="font-style:normal;font-weight:normal;font-size:10.58333302px;line-height:125%;font-family:Sans;letter-spacing:0px;word-spacing:0px;fill:#000000;fill-opacity:1;stroke:none;stroke-width:0.26458332px;stroke-linecap:butt;stroke-linejoin:miter;stroke-opacity:1"
           x="210.26521"
           y="133.34044"
           id="text4506-1"><tspan
             sodipodi:role="line"
             id="tspan4504-5"
             x="210.26521"
             y="142.70421"
             style="font-style:normal;font-variant:normal;font-weight:bold;font-stretch:normal;font-size:50.79999924px;font-family:'DejaVu Serif';-inkscape-font-specification:'DejaVu Serif Bold';stroke-width:0.26458332px"></tspan><tspan
             sodipodi:role="line"
             x="210.26521"
             y="166.38028"
             style="font-style:normal;font-variant:normal;font-weight:bold;font-stretch:normal;font-size:50.79999924px;font-family:'DejaVu Serif';-inkscape-font-specification:'DejaVu Serif Bold';stroke-width:0.26458332px"
             id="tspan4526"><tspan
   style="font-size:42.33333206px;fill:#ffffff"
   id="tspan4528">γ</tspan> </tspan></text>
      </g>
    </g>
    <g
       id="g5452"
       transform="translate(1.9274898,0.42709134)">
      <path
         transform="matrix(1.0796202,0,0,1,47.942049,-206.89327)"
         d="m 46.504898,192.76489 c -0.670023,0.50922 -1.016981,-0.65195 -0.846354,-1.11362 0.462391,-1.25111 2.143224,-1.23317 3.0736,-0.57908 1.664224,1.16999 1.54613,3.60281 0.311815,5.03357 -1.811407,2.0997 -5.083315,1.87142 -6.993552,0.0445 -2.546047,-2.43494 -2.202142,-6.57138 0.222723,-8.95353 3.051445,-2.9977 8.063077,-2.53571 10.913505,0.48999 3.452251,3.66454 2.87094,9.55684 -0.757261,12.87348 -4.27571,3.90855 -11.05188,3.20721 -14.833459,-1.02453 -4.365983,-4.88571 -3.54417,-12.54778 1.2918,-16.79343 5.494937,-4.82419 14.044281,-3.88162 18.753412,1.55907 5.282933,6.10363 4.219417,15.54122 -1.826339,20.71338 -6.711935,5.74209 -17.03849,4.55749 -22.673364,-2.0936"
         sodipodi:t0="0"
         sodipodi:argument="-16.357834"
         sodipodi:radius="16.784866"
         sodipodi:revolution="3"
         sodipodi:expansion="1"
         sodipodi:cy="192.76489"
         sodipodi:cx="46.504898"
         id="path5371"
         style="fill:#73a0c5;fill-opacity:1;fill-rule:evenodd;stroke:#000000;stroke-width:0.26458332px;stroke-linecap:butt;stroke-linejoin:miter;stroke-opacity:1"
         sodipodi:type="spiral" />
      <path
         transform="matrix(1.0796202,0,0,1,101.84271,-206.89327)"
         d="m 46.504898,192.76489 c -0.670023,0.50922 -1.016981,-0.65195 -0.846354,-1.11362 0.462391,-1.25111 2.143224,-1.23317 3.0736,-0.57908 1.664224,1.16999 1.54613,3.60281 0.311815,5.03357 -1.811407,2.0997 -5.083315,1.87142 -6.993552,0.0445 -2.546047,-2.43494 -2.202142,-6.57138 0.222723,-8.95353 3.051445,-2.9977 8.063077,-2.53571 10.913505,0.48999 3.452251,3.66454 2.87094,9.55684 -0.757261,12.87348 -4.27571,3.90855 -11.05188,3.20721 -14.833459,-1.02453 -4.365983,-4.88571 -3.54417,-12.54778 1.2918,-16.79343 5.494937,-4.82419 14.044281,-3.88162 18.753412,1.55907 5.282933,6.10363 4.219417,15.54122 -1.826339,20.71338 -6.711935,5.74209 -17.03849,4.55749 -22.673364,-2.0936"
         sodipodi:t0="0"
         sodipodi:argument="-16.357834"
         sodipodi:radius="16.784866"
         sodipodi:revolution="3"
         sodipodi:expansion="1"
         sodipodi:cy="192.76489"
         sodipodi:cx="46.504898"
         id="path5371-8"
         style="fill:#73a0c5;fill-opacity:1;fill-rule:evenodd;stroke:#000000;stroke-width:0.26458332px;stroke-linecap:butt;stroke-linejoin:miter;stroke-opacity:1"
         sodipodi:type="spiral" />
      <path
         transform="matrix(1.0421437,0.28198631,-0.26119028,0.96528733,209.06096,-213.18634)"
         d="m 46.504898,192.76489 c -0.670023,0.50922 -1.016981,-0.65195 -0.846354,-1.11362 0.462391,-1.25111 2.143224,-1.23317 3.0736,-0.57908 1.664224,1.16999 1.54613,3.60281 0.311815,5.03357 -1.811407,2.0997 -5.083315,1.87142 -6.993552,0.0445 -2.546047,-2.43494 -2.202142,-6.57138 0.222723,-8.95353 3.051445,-2.9977 8.063077,-2.53571 10.913505,0.48999 3.452251,3.66454 2.87094,9.55684 -0.757261,12.87348 -4.27571,3.90855 -11.05188,3.20721 -14.833459,-1.02453 -4.365983,-4.88571 -3.54417,-12.54778 1.2918,-16.79343 5.494937,-4.82419 14.044281,-3.88162 18.753412,1.55907 5.282933,6.10363 4.219417,15.54122 -1.826339,20.71338 -6.711935,5.74209 -17.03849,4.55749 -22.673364,-2.0936"
         sodipodi:t0="0"
         sodipodi:argument="-16.357834"
         sodipodi:radius="16.784866"
         sodipodi:revolution="3"
         sodipodi:expansion="1"
         sodipodi:cy="192.76489"
         sodipodi:cx="46.504898"
         id="path5371-1"
         style="fill:#73a0c5;fill-opacity:1;fill-rule:evenodd;stroke:#000000;stroke-width:0.26458332px;stroke-linecap:butt;stroke-linejoin:miter;stroke-opacity:1"
         sodipodi:type="spiral" />
      <path
         transform="matrix(1.0796202,0,0,1,209.64405,-206.89327)"
         d="m 46.504898,192.76489 c -0.670023,0.50922 -1.016981,-0.65195 -0.846354,-1.11362 0.462391,-1.25111 2.143224,-1.23317 3.0736,-0.57908 1.664224,1.16999 1.54613,3.60281 0.311815,5.03357 -1.811407,2.0997 -5.083315,1.87142 -6.993552,0.0445 -2.546047,-2.43494 -2.202142,-6.57138 0.222723,-8.95353 3.051445,-2.9977 8.063077,-2.53571 10.913505,0.48999 3.452251,3.66454 2.87094,9.55684 -0.757261,12.87348 -4.27571,3.90855 -11.05188,3.20721 -14.833459,-1.02453 -4.365983,-4.88571 -3.54417,-12.54778 1.2918,-16.79343 5.494937,-4.82419 14.044281,-3.88162 18.753412,1.55907 5.282933,6.10363 4.219417,15.54122 -1.826339,20.71338 -6.711935,5.74209 -17.03849,4.55749 -22.673364,-2.0936"
         sodipodi:t0="0"
         sodipodi:argument="-16.357834"
         sodipodi:radius="16.784866"
         sodipodi:revolution="3"
         sodipodi:expansion="1"
         sodipodi:cy="192.76489"
         sodipodi:cx="46.504898"
         id="path5371-2"
         style="fill:#73a0c5;fill-opacity:1;fill-rule:evenodd;stroke:#000000;stroke-width:0.26458332px;stroke-linecap:butt;stroke-linejoin:miter;stroke-opacity:1"
         sodipodi:type="spiral" />
      <path
         transform="matrix(1.0796202,0,0,1,-5.9586203,-206.89327)"
         d="m 46.504898,192.76489 c -0.670023,0.50922 -1.016981,-0.65195 -0.846354,-1.11362 0.462391,-1.25111 2.143224,-1.23317 3.0736,-0.57908 1.664224,1.16999 1.54613,3.60281 0.311815,5.03357 -1.811407,2.0997 -5.083315,1.87142 -6.993552,0.0445 -2.546047,-2.43494 -2.202142,-6.57138 0.222723,-8.95353 3.051445,-2.9977 8.063077,-2.53571 10.913505,0.48999 3.452251,3.66454 2.87094,9.55684 -0.757261,12.87348 -4.27571,3.90855 -11.05188,3.20721 -14.833459,-1.02453 -4.365983,-4.88571 -3.54417,-12.54778 1.2918,-16.79343 5.494937,-4.82419 14.044281,-3.88162 18.753412,1.55907 5.282933,6.10363 4.219417,15.54122 -1.826339,20.71338 -6.711935,5.74209 -17.03849,4.55749 -22.673364,-2.0936"
         sodipodi:t0="0"
         sodipodi:argument="-16.357834"
         sodipodi:radius="16.784866"
         sodipodi:revolution="3"
         sodipodi:expansion="1"
         sodipodi:cy="192.76489"
         sodipodi:cx="46.504898"
         id="path5371-3"
         style="fill:#73a0c5;fill-opacity:1;fill-rule:evenodd;stroke:#000000;stroke-width:0.26458332px;stroke-linecap:butt;stroke-linejoin:miter;stroke-opacity:1"
         sodipodi:type="spiral" />
    </g>
    <g
       id="g5239"
       transform="matrix(1,0,0,0.90971815,7.8995111,-229.78212)">
      <g
         id="g5358"
         transform="translate(-4.1846001,53.025456)" />
    </g>
    <g
       id="g5505"
       transform="translate(4.1577381,1.1339287)">
      <path
         style="opacity:1;fill:#5c80b8;fill-opacity:1;fill-rule:nonzero;stroke:none;stroke-width:0;stroke-linecap:round;stroke-linejoin:round;stroke-miterlimit:4;stroke-dasharray:none;stroke-dashoffset:0;stroke-opacity:1"
         d="M 290.38146,13.392028 281.3699,46.924063 1.7303814,39.558382 11.33859,12.839692 Z"
         id="rect5299"
         inkscape:connector-curvature="0"
         sodipodi:nodetypes="ccccc" />
      <text
         xml:space="preserve"
         style="font-style:normal;font-weight:normal;font-size:10.58333397px;line-height:125%;font-family:Sans;letter-spacing:0px;word-spacing:0px;fill:#000000;fill-opacity:1;stroke:none;stroke-width:0.26458332px;stroke-linecap:butt;stroke-linejoin:miter;stroke-opacity:1"
         x="15.543624"
         y="32.607552"
         id="text5297"
         transform="rotate(-0.03317098)"><tspan
           sodipodi:role="line"
           id="tspan5295"
           x="15.543624"
           y="32.607552"
           style="font-style:normal;font-variant:normal;font-weight:bold;font-stretch:normal;font-size:17.63888931px;font-family:'DejaVu Serif';-inkscape-font-specification:'DejaVu Serif Bold';fill:#f2f2f2;stroke-width:0.26458332px">https://papers-gamma.link</tspan></text>
    </g>
  </g>
</svg>
